# xmcd
#
# Track frame offsets: 
#        150
#        19992
#        40830
#        59449
#        82488
#        98558
#        115551
#        136796
#        153413
#        172816
#        191195
#        206746
#        231788
#
# Disc length: 3356 seconds
#
# Revision: 0
# Processed by: cddbd v1.5.2PL0 Copyright (c) Steve Scherf et al.
# Submitted via: ExactAudioCopy v0.99pb1
#
DISCID=ab0d1a0d
DTITLE=Emmylou Harris - All I Intended To Be
DYEAR=2008
DGENRE=Country
TTITLE0=Shores Of White Sand
TTITLE1=Hold On
TTITLE2=Moon Song
TTITLE3=Broken Man's Lament
TTITLE4=Gold (feat. Dolly Parton and Vince Gill)
TTITLE5=How She Could Sing The Wildwood Flower (feat. Kate and Anna McGa
TTITLE5=rrigle)
TTITLE6=All That You Have Is Your Soul
TTITLE7=Take That Ride
TTITLE8=Old Five And Dimers Like Me
TTITLE9=Kern River
TTITLE10=Not Enough
TTITLE11=Sailing Round The Room (feat. Kate and Anna McGarrigle)
TTITLE12=Beyond The Great Divide
EXTD=
EXTT0=
EXTT1=
EXTT2=
EXTT3=
EXTT4=
EXTT5=
EXTT6=
EXTT7=
EXTT8=
EXTT9=
EXTT10=
EXTT11=
EXTT12=
PLAYORDER=
